<?xml version="1.0" encoding="UTF-8" standalone="no"?>
<svg
   width="24px"
   height="24px"
   version="1.1"
   viewBox="0 0 24 24"
   id="svg26836"
   sodipodi:docname="linkMultipleValues.svg"
   inkscape:version="1.2.2 (b0a8486541, 2022-12-01)"
   xmlns:inkscape="http://www.inkscape.org/namespaces/inkscape"
   xmlns:sodipodi="http://sodipodi.sourceforge.net/DTD/sodipodi-0.dtd"
   xmlns="http://www.w3.org/2000/svg"
   xmlns:svg="http://www.w3.org/2000/svg">
  <defs
     id="defs26840" />
  <sodipodi:namedview
     id="namedview26838"
     pagecolor="#505050"
     bordercolor="#eeeeee"
     borderopacity="1"
     inkscape:showpageshadow="0"
     inkscape:pageopacity="0"
     inkscape:pagecheckerboard="0"
     inkscape:deskcolor="#505050"
     showgrid="false"
     inkscape:zoom="36.541667"
     inkscape:cx="7.6214367"
     inkscape:cy="12.013683"
     inkscape:window-width="1920"
     inkscape:window-height="1017"
     inkscape:window-x="-8"
     inkscape:window-y="-8"
     inkscape:window-maximized="1"
     inkscape:current-layer="svg26836" />
  <path
     d="M0 0h24v24H0V0z"
     fill="none"
     id="path26832" />
  <path
     d="M 11,15 H 7 C 5.35,15 4,13.65 4,12 4,10.35 5.35,9 7,9 h 4 V 7 H 7 c -2.76,0 -5,2.24 -5,5 0,2.76 2.24,5 5,5 h 4 z"
     id="path26850"
     style="fill:#ffffff;fill-opacity:1" />
  <path
     d="m 17,7 h -4 v 2 h 4 c 1.65,0 3,1.35 3,3 0,1.65 -1.35,3 -3,3 h -4 v 2 h 4 c 2.76,0 5,-2.24 5,-5 0,-2.76 -2.24,-5 -5,-5 z"
     id="path26834"
     style="fill:#c79f00;fill-opacity:1" />
</svg>
