<?xml version="1.0" encoding="UTF-8" standalone="no"?>
<svg
   height="24px"
   viewBox="0 0 24 24"
   width="24px"
   fill="#FFFFFF"
   version="1.1"
   id="svg6"
   sodipodi:docname="screenshot.svg"
   inkscape:version="1.2.2 (b0a8486541, 2022-12-01)"
   xmlns:inkscape="http://www.inkscape.org/namespaces/inkscape"
   xmlns:sodipodi="http://sodipodi.sourceforge.net/DTD/sodipodi-0.dtd"
   xmlns="http://www.w3.org/2000/svg"
   xmlns:svg="http://www.w3.org/2000/svg">
  <defs
     id="defs10">
    <linearGradient
       id="linearGradient6691"
       inkscape:swatch="solid">
      <stop
         style="stop-color:#000000;stop-opacity:1;"
         offset="0"
         id="stop6689" />
    </linearGradient>
  </defs>
  <sodipodi:namedview
     id="namedview8"
     pagecolor="#505050"
     bordercolor="#eeeeee"
     borderopacity="1"
     inkscape:showpageshadow="0"
     inkscape:pageopacity="0"
     inkscape:pagecheckerboard="0"
     inkscape:deskcolor="#505050"
     showgrid="false"
     inkscape:zoom="34.875"
     inkscape:cx="11.426523"
     inkscape:cy="12.014337"
     inkscape:window-width="1920"
     inkscape:window-height="1017"
     inkscape:window-x="1912"
     inkscape:window-y="-8"
     inkscape:window-maximized="1"
     inkscape:current-layer="svg6" />
  <path
     d="M0 0h24v24H0V0z"
     fill="none"
     id="path2" />
  <path
     id="path4"
     style="stroke-width:0.625387;stroke-dasharray:none"
     d="M 1,4 V 20 H 23 V 4 Z M 2.6414063,5.4318182 H 21.708073 V 18.522727 H 2.6414063 Z" />
  <path
     id="path6687"
     style="fill:#ffffff;fill-opacity:1;stroke:none;stroke-width:0.833334"
     d="m 12.186326,7.129043 a 4.9999998,5.0000002 0 0 0 -4.9999998,5 4.9999998,5.0000002 0 0 0 4.9999998,5 4.9999998,5.0000002 0 0 0 5,-5 4.9999998,5.0000002 0 0 0 -5,-5 z m 0,1.25 a 3.7499998,3.7500002 0 0 1 3.75,3.75 3.7499998,3.7500002 0 0 1 -3.75,3.75 3.7499998,3.7500002 0 0 1 -3.7499998,-3.75 3.7499998,3.7500002 0 0 1 3.7499998,-3.75 z" />
  <circle
     style="fill:#ffffff;fill-opacity:1;stroke:none;stroke-width:1.49999"
     id="path7134"
     cx="19.152328"
     cy="7.9408607"
     r="1.5" />
</svg>
