<?xml version="1.0" encoding="UTF-8"?>
<svg width="16" height="16" enable-background="new 0 0 20 20" fill="#ffffff" version="1.1" viewBox="0 0 17.778 17.778" xmlns="http://www.w3.org/2000/svg">
 <g transform="translate(-1.1111 -1.1111)">
  <rect width="20" height="20" fill="none"/>
 </g>
 <g transform="translate(-1.1111 -1.1111)" stroke="#fff" stroke-width=".55556">
  <path d="m15 10c-1.1 0-2-0.9-2-2v-4h0.5c0.28 0 0.5-0.22 0.5-0.5s-0.22-0.5-0.5-0.5h-7c-0.28 0-0.5 0.22-0.5 0.5s0.22 0.5 0.5 0.5h0.5v4c0 1.1-0.9 2-2 2v1h4.5v5.5l0.5 0.5 0.5-0.5v-5.5h4.5zm-7.77 0c0.48-0.53 0.77-1.23 0.77-2v-4h4v4c0 0.77 0.29 1.47 0.77 2z" stroke="#fff" stroke-width=".55556"/>
 </g>
</svg>
