{
    "asset" : {
        "generator" : "Khronos glTF Blender I/O v1.6.16",
        "version" : "2.0"
    },
    "extensionsUsed" : [
        "KHR_materials_transmission"
    ],
    "scene" : 0,
    "scenes" : [
        {
            "name" : "Scene",
            "nodes" : [
                12
            ]
        }
    ],
    "nodes" : [
        {
            "mesh" : 0,
            "name" : "Cone/TY+5/RX-90",
            "rotation" : [
                -0.7071068286895752,
                0,
                0,
                0.7071068286895752
            ],
            "translation" : [
                0,
                5,
                0
            ]
        },
        {
            "mesh" : 1,
            "name" : "Cone/TZ+4/SZ-1",
            "scale" : [
                1,
                1,
                -1
            ],
            "translation" : [
                0,
                0,
                4
            ]
        },
        {
            "mesh" : 2,
            "name" : "Cylinder/Centered"
        },
        {
            "mesh" : 3,
            "name" : "Cylinder/TX+2",
            "translation" : [
                2,
                0,
                0
            ]
        },
        {
            "mesh" : 4,
            "name" : "Cylinder/TY+2",
            "translation" : [
                0,
                2,
                0
            ]
        },
        {
            "mesh" : 5,
            "name" : "Cone/SZ+2",
            "scale" : [
                1,
                1,
                2
            ]
        },
        {
            "children" : [
                5
            ],
            "name" : "Pivot/TX+4/RX+60",
            "rotation" : [
                0.5,
                0,
                0,
                0.8660253882408142
            ],
            "translation" : [
                4,
                0,
                0
            ]
        },
        {
            "mesh" : 6,
            "name" : "Cone/SY3Z4",
            "scale" : [
                1,
                3,
                4
            ]
        },
        {
            "children" : [
                7
            ],
            "name" : "Pivot/TY-4",
            "translation" : [
                0,
                -4,
                0
            ]
        },
        {
            "mesh" : 7,
            "name" : "Torus/TX+2",
            "translation" : [
                2,
                0,
                0
            ]
        },
        {
            "mesh" : 8,
            "name" : "Torus/TY+2/TZ-1",
            "translation" : [
                0,
                2,
                -1
            ]
        },
        {
            "mesh" : 9,
            "name" : "Torus/TZ+1",
            "translation" : [
                0,
                0,
                1
            ]
        },
        {
            "children" : [
                0,
                1,
                2,
                3,
                4,
                6,
                8,
                9,
                10,
                11
            ],
            "name" : "LookToNegativeZ",
            "rotation" : [
                -0.7071068286895752,
                0,
                0,
                0.7071068286895752
            ]
        }
    ],
    "materials" : [
        {
            "doubleSided" : true,
            "extensions" : {
                "KHR_materials_transmission" : {
                    "transmissionFactor" : 0.8260869383811951
                }
            },
            "name" : "Mat_ConeMesh/TY+5/RX-90",
            "pbrMetallicRoughness" : {
                "baseColorFactor" : [
                    0.8000000715255737,
                    0.7760764956474304,
                    0.7760764956474304,
                    0.5893719792366028
                ],
                "metallicFactor" : 0.5265700817108154,
                "roughnessFactor" : 0.5
            }
        },
        {
            "doubleSided" : true,
            "extensions" : {
                "KHR_materials_transmission" : {
                    "transmissionFactor" : 0.8260869383811951
                }
            },
            "name" : "Mat_ConeMesh/TZ+4/SZ-1",
            "pbrMetallicRoughness" : {
                "baseColorFactor" : [
                    0.8000000715255737,
                    0.7760764956474304,
                    0.7760764956474304,
                    0.5893719792366028
                ],
                "metallicFactor" : 0.5265700817108154,
                "roughnessFactor" : 0.5
            }
        },
        {
            "doubleSided" : true,
            "extensions" : {
                "KHR_materials_transmission" : {
                    "transmissionFactor" : 0.8260869383811951
                }
            },
            "name" : "Mat_CylinderMesh/Centered",
            "pbrMetallicRoughness" : {
                "baseColorFactor" : [
                    0.8000000715255737,
                    0.7760764956474304,
                    0.7760764956474304,
                    0.5893719792366028
                ],
                "metallicFactor" : 0.5265700817108154,
                "roughnessFactor" : 0.5
            }
        },
        {
            "doubleSided" : true,
            "extensions" : {
                "KHR_materials_transmission" : {
                    "transmissionFactor" : 0.8260869383811951
                }
            },
            "name" : "Mat_CylinderMesh/TX+2",
            "pbrMetallicRoughness" : {
                "baseColorFactor" : [
                    0.8000000715255737,
                    0.7760764956474304,
                    0.7760764956474304,
                    0.5893719792366028
                ],
                "metallicFactor" : 0.5265700817108154,
                "roughnessFactor" : 0.5
            }
        },
        {
            "doubleSided" : true,
            "extensions" : {
                "KHR_materials_transmission" : {
                    "transmissionFactor" : 0.8260869383811951
                }
            },
            "name" : "Mat_CylinderMesh/TY+2",
            "pbrMetallicRoughness" : {
                "baseColorFactor" : [
                    0.8000000715255737,
                    0.7760764956474304,
                    0.7760764956474304,
                    0.5893719792366028
                ],
                "metallicFactor" : 0.5265700817108154,
                "roughnessFactor" : 0.5
            }
        },
        {
            "doubleSided" : true,
            "extensions" : {
                "KHR_materials_transmission" : {
                    "transmissionFactor" : 0.8260869383811951
                }
            },
            "name" : "Mat_ConeMesh/SZ+2",
            "pbrMetallicRoughness" : {
                "baseColorFactor" : [
                    0.8000000715255737,
                    0.7760764956474304,
                    0.7760764956474304,
                    0.5893719792366028
                ],
                "metallicFactor" : 0.5265700817108154,
                "roughnessFactor" : 0.5
            }
        },
        {
            "doubleSided" : true,
            "extensions" : {
                "KHR_materials_transmission" : {
                    "transmissionFactor" : 0.8260869383811951
                }
            },
            "name" : "Mat_ConeMesh/SY3Z4",
            "pbrMetallicRoughness" : {
                "baseColorFactor" : [
                    0.8000000715255737,
                    0.7760764956474304,
                    0.7760764956474304,
                    0.5893719792366028
                ],
                "metallicFactor" : 0.5265700817108154,
                "roughnessFactor" : 0.5
            }
        },
        {
            "doubleSided" : true,
            "extensions" : {
                "KHR_materials_transmission" : {
                    "transmissionFactor" : 0.8260869383811951
                }
            },
            "name" : "Mat_TorusMesh/TX+2",
            "pbrMetallicRoughness" : {
                "baseColorFactor" : [
                    0.8000000715255737,
                    0.7760764956474304,
                    0.7760764956474304,
                    0.5893719792366028
                ],
                "metallicFactor" : 0.5265700817108154,
                "roughnessFactor" : 0.5
            }
        },
        {
            "doubleSided" : true,
            "extensions" : {
                "KHR_materials_transmission" : {
                    "transmissionFactor" : 0.8260869383811951
                }
            },
            "name" : "Mat_TorusMesh/TY+2/TZ-1",
            "pbrMetallicRoughness" : {
                "baseColorFactor" : [
                    0.8000000715255737,
                    0.7760764956474304,
                    0.7760764956474304,
                    0.5893719792366028
                ],
                "metallicFactor" : 0.5265700817108154,
                "roughnessFactor" : 0.5
            }
        },
        {
            "doubleSided" : true,
            "extensions" : {
                "KHR_materials_transmission" : {
                    "transmissionFactor" : 0.8260869383811951
                }
            },
            "name" : "Mat_TorusMesh/TZ+1",
            "pbrMetallicRoughness" : {
                "baseColorFactor" : [
                    0.8000000715255737,
                    0.7760764956474304,
                    0.7760764956474304,
                    0.5893719792366028
                ],
                "metallicFactor" : 0.5265700817108154,
                "roughnessFactor" : 0.5
            }
        }
    ],
    "meshes" : [
        {
            "name" : "ConeMesh/TY+5/RX-90",
            "primitives" : [
                {
                    "attributes" : {
                        "POSITION" : 0
                    },
                    "indices" : 1,
                    "material" : 0
                }
            ]
        },
        {
            "name" : "ConeMesh/TZ+4/SZ-1",
            "primitives" : [
                {
                    "attributes" : {
                        "POSITION" : 2
                    },
                    "indices" : 1,
                    "material" : 1
                }
            ]
        },
        {
            "name" : "CylinderMesh/Centered",
            "primitives" : [
                {
                    "attributes" : {
                        "POSITION" : 3
                    },
                    "indices" : 4,
                    "material" : 2
                }
            ]
        },
        {
            "name" : "CylinderMesh/TX+2",
            "primitives" : [
                {
                    "attributes" : {
                        "POSITION" : 5
                    },
                    "indices" : 4,
                    "material" : 3
                }
            ]
        },
        {
            "name" : "CylinderMesh/TY+2",
            "primitives" : [
                {
                    "attributes" : {
                        "POSITION" : 6
                    },
                    "indices" : 4,
                    "material" : 4
                }
            ]
        },
        {
            "name" : "ConeMesh/SZ+2",
            "primitives" : [
                {
                    "attributes" : {
                        "POSITION" : 7
                    },
                    "indices" : 1,
                    "material" : 5
                }
            ]
        },
        {
            "name" : "ConeMesh/SY3Z4",
            "primitives" : [
                {
                    "attributes" : {
                        "POSITION" : 8
                    },
                    "indices" : 1,
                    "material" : 6
                }
            ]
        },
        {
            "name" : "TorusMesh/TX+2",
            "primitives" : [
                {
                    "attributes" : {
                        "POSITION" : 9
                    },
                    "indices" : 10,
                    "material" : 7
                }
            ]
        },
        {
            "name" : "TorusMesh/TY+2/TZ-1",
            "primitives" : [
                {
                    "attributes" : {
                        "POSITION" : 11
                    },
                    "indices" : 10,
                    "material" : 8
                }
            ]
        },
        {
            "name" : "TorusMesh/TZ+1",
            "primitives" : [
                {
                    "attributes" : {
                        "POSITION" : 12
                    },
                    "indices" : 10,
                    "material" : 9
                }
            ]
        }
    ],
    "accessors" : [
        {
            "bufferView" : 0,
            "componentType" : 5126,
            "count" : 33,
            "max" : [
                1,
                1,
                1
            ],
            "min" : [
                -1,
                -1,
                -1
            ],
            "type" : "VEC3"
        },
        {
            "bufferView" : 1,
            "componentType" : 5123,
            "count" : 186,
            "type" : "SCALAR"
        },
        {
            "bufferView" : 2,
            "componentType" : 5126,
            "count" : 33,
            "max" : [
                1,
                1,
                1
            ],
            "min" : [
                -1,
                -1,
                -1
            ],
            "type" : "VEC3"
        },
        {
            "bufferView" : 3,
            "componentType" : 5126,
            "count" : 64,
            "max" : [
                1,
                1,
                1
            ],
            "min" : [
                -1,
                -1,
                -1
            ],
            "type" : "VEC3"
        },
        {
            "bufferView" : 4,
            "componentType" : 5123,
            "count" : 372,
            "type" : "SCALAR"
        },
        {
            "bufferView" : 5,
            "componentType" : 5126,
            "count" : 64,
            "max" : [
                1,
                1,
                1
            ],
            "min" : [
                -1,
                -1,
                -1
            ],
            "type" : "VEC3"
        },
        {
            "bufferView" : 6,
            "componentType" : 5126,
            "count" : 64,
            "max" : [
                1,
                1,
                1
            ],
            "min" : [
                -1,
                -1,
                -1
            ],
            "type" : "VEC3"
        },
        {
            "bufferView" : 7,
            "componentType" : 5126,
            "count" : 33,
            "max" : [
                1,
                1,
                1
            ],
            "min" : [
                -1,
                -1,
                -1
            ],
            "type" : "VEC3"
        },
        {
            "bufferView" : 8,
            "componentType" : 5126,
            "count" : 33,
            "max" : [
                1,
                1,
                1
            ],
            "min" : [
                -1,
                -1,
                -1
            ],
            "type" : "VEC3"
        },
        {
            "bufferView" : 9,
            "componentType" : 5126,
            "count" : 576,
            "max" : [
                1.25,
                1.25,
                0.25
            ],
            "min" : [
                -1.25,
                -1.25,
                -0.25
            ],
            "type" : "VEC3"
        },
        {
            "bufferView" : 10,
            "componentType" : 5123,
            "count" : 3456,
            "type" : "SCALAR"
        },
        {
            "bufferView" : 11,
            "componentType" : 5126,
            "count" : 576,
            "max" : [
                1.25,
                1.25,
                0.25
            ],
            "min" : [
                -1.25,
                -1.25,
                -0.25
            ],
            "type" : "VEC3"
        },
        {
            "bufferView" : 12,
            "componentType" : 5126,
            "count" : 576,
            "max" : [
                1.25,
                1.25,
                0.25
            ],
            "min" : [
                -1.25,
                -1.25,
                -0.25
            ],
            "type" : "VEC3"
        }
    ],
    "bufferViews" : [
        {
            "buffer" : 0,
            "byteLength" : 396,
            "byteOffset" : 0
        },
        {
            "buffer" : 0,
            "byteLength" : 372,
            "byteOffset" : 396
        },
        {
            "buffer" : 0,
            "byteLength" : 396,
            "byteOffset" : 768
        },
        {
            "buffer" : 0,
            "byteLength" : 768,
            "byteOffset" : 1164
        },
        {
            "buffer" : 0,
            "byteLength" : 744,
            "byteOffset" : 1932
        },
        {
            "buffer" : 0,
            "byteLength" : 768,
            "byteOffset" : 2676
        },
        {
            "buffer" : 0,
            "byteLength" : 768,
            "byteOffset" : 3444
        },
        {
            "buffer" : 0,
            "byteLength" : 396,
            "byteOffset" : 4212
        },
        {
            "buffer" : 0,
            "byteLength" : 396,
            "byteOffset" : 4608
        },
        {
            "buffer" : 0,
            "byteLength" : 6912,
            "byteOffset" : 5004
        },
        {
            "buffer" : 0,
            "byteLength" : 6912,
            "byteOffset" : 11916
        },
        {
            "buffer" : 0,
            "byteLength" : 6912,
            "byteOffset" : 18828
        },
        {
            "buffer" : 0,
            "byteLength" : 6912,
            "byteOffset" : 25740
        }
    ],
    "buffers" : [
        {
            "byteLength" : 32652,
            "uri" : "data:application/octet-stream;base64,"
        }
    ]
}
