{
    "asset" : {
        "generator" : "Khronos glTF Blender I/O v1.5.17",
        "version" : "2.0"
    },
    "scene" : 0,
    "scenes" : [
        {
            "name" : "Scene",
            "nodes" : [
                1
            ]
        }
    ],
    "nodes" : [
        {
            "mesh" : 0,
            "name" : "ToyCar",
            "translation" : [
                0,
                -2.625356674194336,
                0
            ]
        },
        {
            "children" : [
                0
            ],
            "name" : "CarNode"
        }
    ],
    "materials" : [
        {
            "doubleSided" : true,
            "name" : "Material.001",
            "pbrMetallicRoughness" : {
                "baseColorFactor" : [
                    0.800000011920929,
                    0.800000011920929,
                    0.800000011920929,
                    1
                ],
                "metallicFactor" : 0.8365384340286255,
                "roughnessFactor" : 0.5769230723381042
            }
        }
    ],
    "meshes" : [
        {
            "name" : "Car",
            "primitives" : [
                {
                    "attributes" : {
                        "POSITION" : 0,
                        "NORMAL" : 1,
                        "TEXCOORD_0" : 2
                    },
                    "indices" : 3,
                    "material" : 0
                }
            ]
        }
    ],
    "accessors" : [
        {
            "bufferView" : 0,
            "componentType" : 5126,
            "count" : 3422,
            "max" : [
                2.3966360092163086,
                1.1513431072235107,
                1.4088523387908936
            ],
            "min" : [
                -2.929337501525879,
                -1.1513431072235107,
                0.0021288692951202393
            ],
            "type" : "VEC3"
        },
        {
            "bufferView" : 1,
            "componentType" : 5126,
            "count" : 3422,
            "type" : "VEC3"
        },
        {
            "bufferView" : 2,
            "componentType" : 5126,
            "count" : 3422,
            "type" : "VEC2"
        },
        {
            "bufferView" : 3,
            "componentType" : 5123,
            "count" : 9570,
            "type" : "SCALAR"
        }
    ],
    "bufferViews" : [
        {
            "buffer" : 0,
            "byteLength" : 41064,
            "byteOffset" : 0
        },
        {
            "buffer" : 0,
            "byteLength" : 41064,
            "byteOffset" : 41064
        },
        {
            "buffer" : 0,
            "byteLength" : 27376,
            "byteOffset" : 82128
        },
        {
            "buffer" : 0,
            "byteLength" : 19140,
            "byteOffset" : 109504
        }
    ],
    "buffers" : [
        {
            "byteLength" : 128644,
            "uri" : "data:application/octet-stream;base64,"
        }
    ]
}
