{
    "asset" : {
        "generator" : "Khronos glTF Blender I/O v1.5.17",
        "version" : "2.0"
    },
    "scene" : 0,
    "scenes" : [
        {
            "name" : "Scene",
            "nodes" : [
                1
            ]
        }
    ],
    "nodes" : [
        {
            "mesh" : 0,
            "name" : "ToySUV"
        },
        {
            "children" : [
                0
            ],
            "name" : "SUVNode",
            "translation" : [
                0,
                2.6082534790039062,
                0
            ]
        }
    ],
    "materials" : [
        {
            "doubleSided" : true,
            "name" : "Material.006",
            "pbrMetallicRoughness" : {
                "baseColorFactor" : [
                    0.800000011920929,
                    0.800000011920929,
                    0.800000011920929,
                    1
                ],
                "metallicFactor" : 0.8365384340286255,
                "roughnessFactor" : 0.5769230723381042
            }
        }
    ],
    "meshes" : [
        {
            "name" : "SUV",
            "primitives" : [
                {
                    "attributes" : {
                        "POSITION" : 0,
                        "NORMAL" : 1,
                        "TEXCOORD_0" : 2
                    },
                    "indices" : 3,
                    "material" : 0
                }
            ]
        }
    ],
    "accessors" : [
        {
            "bufferView" : 0,
            "componentType" : 5126,
            "count" : 7943,
            "max" : [
                2.412571907043457,
                1.224208950996399,
                1.5821185111999512
            ],
            "min" : [
                -3.010239601135254,
                -1.224208950996399,
                0
            ],
            "type" : "VEC3"
        },
        {
            "bufferView" : 1,
            "componentType" : 5126,
            "count" : 7943,
            "type" : "VEC3"
        },
        {
            "bufferView" : 2,
            "componentType" : 5126,
            "count" : 7943,
            "type" : "VEC2"
        },
        {
            "bufferView" : 3,
            "componentType" : 5123,
            "count" : 19308,
            "type" : "SCALAR"
        }
    ],
    "bufferViews" : [
        {
            "buffer" : 0,
            "byteLength" : 95316,
            "byteOffset" : 0
        },
        {
            "buffer" : 0,
            "byteLength" : 95316,
            "byteOffset" : 95316
        },
        {
            "buffer" : 0,
            "byteLength" : 63544,
            "byteOffset" : 190632
        },
        {
            "buffer" : 0,
            "byteLength" : 38616,
            "byteOffset" : 254176
        }
    ],
    "buffers" : [
        {
            "byteLength" : 292792,
            "uri" : "data:application/octet-stream;base64,"
        }
    ]
}
