{
    "asset" : {
        "generator" : "Khronos glTF Blender I/O v1.5.17",
        "version" : "2.0"
    },
    "scene" : 0,
    "scenes" : [
        {
            "name" : "Scene",
            "nodes" : [
                0,
                1
            ]
        }
    ],
    "nodes" : [
        {
            "mesh" : 0,
            "name" : "Tire"
        },
        {
            "mesh" : 1,
            "name" : "Rim"
        }
    ],
    "materials" : [
        {
            "doubleSided" : true,
            "name" : "Material.001",
            "pbrMetallicRoughness" : {
                "baseColorFactor" : [
                    0.800000011920929,
                    0.800000011920929,
                    0.800000011920929,
                    1
                ],
                "metallicFactor" : 0.8365384340286255,
                "roughnessFactor" : 0.5769230723381042
            }
        }
    ],
    "meshes" : [
        {
            "name" : "WheelTire",
            "primitives" : [
                {
                    "attributes" : {
                        "POSITION" : 0,
                        "NORMAL" : 1,
                        "TEXCOORD_0" : 2
                    },
                    "indices" : 3,
                    "material" : 0
                }
            ]
        },
        {
            "name" : "WheelRim",
            "primitives" : [
                {
                    "attributes" : {
                        "POSITION" : 4,
                        "NORMAL" : 5,
                        "TEXCOORD_0" : 6
                    },
                    "indices" : 7,
                    "material" : 0
                }
            ]
        }
    ],
    "accessors" : [
        {
            "bufferView" : 0,
            "componentType" : 5126,
            "count" : 165,
            "max" : [
                0.4528900384902954,
                0.2272258847951889,
                0.45289021730422974
            ],
            "min" : [
                -0.4528900384902954,
                -0.05091223120689392,
                -0.45288997888565063
            ],
            "type" : "VEC3"
        },
        {
            "bufferView" : 1,
            "componentType" : 5126,
            "count" : 165,
            "type" : "VEC3"
        },
        {
            "bufferView" : 2,
            "componentType" : 5126,
            "count" : 165,
            "type" : "VEC2"
        },
        {
            "bufferView" : 3,
            "componentType" : 5123,
            "count" : 960,
            "type" : "SCALAR"
        },
        {
            "bufferView" : 4,
            "componentType" : 5126,
            "count" : 655,
            "max" : [
                0.35178375244140625,
                0.0560382641851902,
                0.35178378224372864
            ],
            "min" : [
                -0.35178422927856445,
                -0.029477953910827637,
                -0.3517841696739197
            ],
            "type" : "VEC3"
        },
        {
            "bufferView" : 5,
            "componentType" : 5126,
            "count" : 655,
            "type" : "VEC3"
        },
        {
            "bufferView" : 6,
            "componentType" : 5126,
            "count" : 655,
            "type" : "VEC2"
        },
        {
            "bufferView" : 7,
            "componentType" : 5123,
            "count" : 1920,
            "type" : "SCALAR"
        }
    ],
    "bufferViews" : [
        {
            "buffer" : 0,
            "byteLength" : 1980,
            "byteOffset" : 0
        },
        {
            "buffer" : 0,
            "byteLength" : 1980,
            "byteOffset" : 1980
        },
        {
            "buffer" : 0,
            "byteLength" : 1320,
            "byteOffset" : 3960
        },
        {
            "buffer" : 0,
            "byteLength" : 1920,
            "byteOffset" : 5280
        },
        {
            "buffer" : 0,
            "byteLength" : 7860,
            "byteOffset" : 7200
        },
        {
            "buffer" : 0,
            "byteLength" : 7860,
            "byteOffset" : 15060
        },
        {
            "buffer" : 0,
            "byteLength" : 5240,
            "byteOffset" : 22920
        },
        {
            "buffer" : 0,
            "byteLength" : 3840,
            "byteOffset" : 28160
        }
    ],
    "buffers" : [
        {
            "byteLength" : 32000,
            "uri" : "data:application/octet-stream;base64,"
        }
    ]
}
